{
	"asset":{
		"generator":"Khronos glTF Blender I/O v5.0.21",
		"version":"2.0"
	},
	"extensionsUsed":[
		"KHR_lights_punctual"
	],
	"extensionsRequired":[
		"KHR_lights_punctual"
	],
	"extensions":{
		"KHR_lights_punctual":{
			"lights":[
				{
					"color":[
						1,
						1,
						1
					],
					"intensity":54351.41306588226,
					"type":"point",
					"name":"Light"
				}
			]
		}
	},
	"scene":0,
	"scenes":[
		{
			"name":"Scene",
			"nodes":[
				0,
				1,
				2,
				3,
				4,
				5,
				6,
				7,
				8,
				9
			]
		}
	],
	"nodes":[
		{
			"extensions":{
				"KHR_lights_punctual":{
					"light":0
				}
			},
			"name":"Light",
			"rotation":[
				-0.28416627645492554,
				0.7269423007965088,
				0.34203392267227173,
				0.5232754945755005
			],
			"translation":[
				4.076245307922363,
				5.903861999511719,
				-1.0054539442062378
			]
		},
		{
			"camera":0,
			"name":"Camera",
			"rotation":[
				-0.20997299253940582,
				0.3857799470424652,
				0.09062844514846802,
				0.8937962055206299
			],
			"translation":[
				7.358891487121582,
				4.958309173583984,
				6.925790786743164
			]
		},
		{
			"mesh":0,
			"name":"Cube",
			"scale":[
				1.5772373676300049,
				1.5772373676300049,
				1.5772373676300049
			],
			"translation":[
				0,
				2.5514297485351562,
				0.04205653816461563
			]
		},
		{
			"name":"Empty",
			"rotation":[
				0.5,
				0.5,
				-0.5,
				0.5
			],
			"scale":[
				1.444483757019043,
				1.444483757019043,
				1.444483757019043
			],
			"translation":[
				0,
				2.582271099090576,
				-1.7663747072219849
			]
		},
		{
			"name":"Empty.001",
			"rotation":[
				0.70710688829422,
				0,
				0,
				0.7071066498756409
			],
			"translation":[
				0,
				2.628533124923706,
				0
			]
		},
		{
			"mesh":1,
			"name":"Cylinder",
			"rotation":[
				0,
				0,
				0.7070962190628052,
				0.7071173191070557
			],
			"scale":[
				0.05370642617344856,
				0.05370642617344856,
				0.05370642617344856
			],
			"translation":[
				0.8871636986732483,
				1.3283933401107788,
				-0.5263341665267944
			]
		},
		{
			"mesh":2,
			"name":"Cylinder.001",
			"rotation":[
				0,
				0,
				0.7070962190628052,
				0.7071173191070557
			],
			"scale":[
				0.05370642617344856,
				0.05370642617344856,
				0.05370642617344856
			],
			"translation":[
				0.8871636986732483,
				1.3283933401107788,
				-0.16493192315101624
			]
		},
		{
			"mesh":3,
			"name":"Cylinder.002",
			"rotation":[
				0,
				0,
				0.7070962190628052,
				0.7071173191070557
			],
			"scale":[
				0.05370642617344856,
				0.05370642617344856,
				0.05370642617344856
			],
			"translation":[
				0.8871636986732483,
				1.3283933401107788,
				-0.16493192315101624
			]
		},
		{
			"mesh":4,
			"name":"Cylinder.003",
			"rotation":[
				0,
				0,
				0.7070962190628052,
				0.7071173191070557
			],
			"scale":[
				0.05370642617344856,
				0.05370642617344856,
				0.05370642617344856
			],
			"translation":[
				0.8871636986732483,
				1.3283933401107788,
				0.5333728790283203
			]
		},
		{
			"mesh":5,
			"name":"Cylinder.004",
			"rotation":[
				0,
				0,
				0.7070962190628052,
				0.7071173191070557
			],
			"scale":[
				0.05370642617344856,
				0.05370642617344856,
				0.05370642617344856
			],
			"translation":[
				0.8871636986732483,
				1.3283933401107788,
				0.17197060585021973
			]
		}
	],
	"cameras":[
		{
			"name":"Camera",
			"perspective":{
				"aspectRatio":1.7777777777777777,
				"yfov":0.39959652046304894,
				"zfar":100,
				"znear":0.10000000149011612
			},
			"type":"perspective"
		}
	],
	"meshes":[
		{
			"name":"Cube.001",
			"primitives":[
				{
					"attributes":{
						"POSITION":0,
						"NORMAL":1,
						"TEXCOORD_0":2
					},
					"indices":3
				}
			]
		},
		{
			"name":"Cylinder",
			"primitives":[
				{
					"attributes":{
						"POSITION":4,
						"NORMAL":5,
						"TEXCOORD_0":6
					},
					"indices":7
				}
			]
		},
		{
			"name":"Cylinder.001",
			"primitives":[
				{
					"attributes":{
						"POSITION":8,
						"NORMAL":9,
						"TEXCOORD_0":10
					},
					"indices":7
				}
			]
		},
		{
			"name":"Cylinder.002",
			"primitives":[
				{
					"attributes":{
						"POSITION":11,
						"NORMAL":12,
						"TEXCOORD_0":13
					},
					"indices":7
				}
			]
		},
		{
			"name":"Cylinder.003",
			"primitives":[
				{
					"attributes":{
						"POSITION":14,
						"NORMAL":15,
						"TEXCOORD_0":16
					},
					"indices":7
				}
			]
		},
		{
			"name":"Cylinder.004",
			"primitives":[
				{
					"attributes":{
						"POSITION":17,
						"NORMAL":18,
						"TEXCOORD_0":19
					},
					"indices":7
				}
			]
		}
	],
	"accessors":[
		{
			"bufferView":0,
			"componentType":5126,
			"count":1952,
			"max":[
				0.6862372756004333,
				0.9425625801086426,
				0.948769211769104
			],
			"min":[
				-1.0144319534301758,
				-0.943419873714447,
				-0.9738702774047852
			],
			"type":"VEC3"
		},
		{
			"bufferView":1,
			"componentType":5126,
			"count":1952,
			"type":"VEC3"
		},
		{
			"bufferView":2,
			"componentType":5126,
			"count":1952,
			"type":"VEC2"
		},
		{
			"bufferView":3,
			"componentType":5123,
			"count":9294,
			"type":"SCALAR"
		},
		{
			"bufferView":4,
			"componentType":5126,
			"count":192,
			"max":[
				1,
				1,
				1
			],
			"min":[
				-1,
				-1,
				-1
			],
			"type":"VEC3"
		},
		{
			"bufferView":5,
			"componentType":5126,
			"count":192,
			"type":"VEC3"
		},
		{
			"bufferView":6,
			"componentType":5126,
			"count":192,
			"type":"VEC2"
		},
		{
			"bufferView":7,
			"componentType":5123,
			"count":372,
			"type":"SCALAR"
		},
		{
			"bufferView":8,
			"componentType":5126,
			"count":192,
			"max":[
				1,
				1,
				1
			],
			"min":[
				-1,
				-1,
				-1
			],
			"type":"VEC3"
		},
		{
			"bufferView":9,
			"componentType":5126,
			"count":192,
			"type":"VEC3"
		},
		{
			"bufferView":10,
			"componentType":5126,
			"count":192,
			"type":"VEC2"
		},
		{
			"bufferView":11,
			"componentType":5126,
			"count":192,
			"max":[
				1,
				1,
				1
			],
			"min":[
				-1,
				-1,
				-1
			],
			"type":"VEC3"
		},
		{
			"bufferView":12,
			"componentType":5126,
			"count":192,
			"type":"VEC3"
		},
		{
			"bufferView":13,
			"componentType":5126,
			"count":192,
			"type":"VEC2"
		},
		{
			"bufferView":14,
			"componentType":5126,
			"count":192,
			"max":[
				1,
				1,
				1
			],
			"min":[
				-1,
				-1,
				-1
			],
			"type":"VEC3"
		},
		{
			"bufferView":15,
			"componentType":5126,
			"count":192,
			"type":"VEC3"
		},
		{
			"bufferView":16,
			"componentType":5126,
			"count":192,
			"type":"VEC2"
		},
		{
			"bufferView":17,
			"componentType":5126,
			"count":192,
			"max":[
				1,
				1,
				1
			],
			"min":[
				-1,
				-1,
				-1
			],
			"type":"VEC3"
		},
		{
			"bufferView":18,
			"componentType":5126,
			"count":192,
			"type":"VEC3"
		},
		{
			"bufferView":19,
			"componentType":5126,
			"count":192,
			"type":"VEC2"
		}
	],
	"bufferViews":[
		{
			"buffer":0,
			"byteLength":23424,
			"byteOffset":0,
			"target":34962
		},
		{
			"buffer":0,
			"byteLength":23424,
			"byteOffset":23424,
			"target":34962
		},
		{
			"buffer":0,
			"byteLength":15616,
			"byteOffset":46848,
			"target":34962
		},
		{
			"buffer":0,
			"byteLength":18588,
			"byteOffset":62464,
			"target":34963
		},
		{
			"buffer":0,
			"byteLength":2304,
			"byteOffset":81052,
			"target":34962
		},
		{
			"buffer":0,
			"byteLength":2304,
			"byteOffset":83356,
			"target":34962
		},
		{
			"buffer":0,
			"byteLength":1536,
			"byteOffset":85660,
			"target":34962
		},
		{
			"buffer":0,
			"byteLength":744,
			"byteOffset":87196,
			"target":34963
		},
		{
			"buffer":0,
			"byteLength":2304,
			"byteOffset":87940,
			"target":34962
		},
		{
			"buffer":0,
			"byteLength":2304,
			"byteOffset":90244,
			"target":34962
		},
		{
			"buffer":0,
			"byteLength":1536,
			"byteOffset":92548,
			"target":34962
		},
		{
			"buffer":0,
			"byteLength":2304,
			"byteOffset":94084,
			"target":34962
		},
		{
			"buffer":0,
			"byteLength":2304,
			"byteOffset":96388,
			"target":34962
		},
		{
			"buffer":0,
			"byteLength":1536,
			"byteOffset":98692,
			"target":34962
		},
		{
			"buffer":0,
			"byteLength":2304,
			"byteOffset":100228,
			"target":34962
		},
		{
			"buffer":0,
			"byteLength":2304,
			"byteOffset":102532,
			"target":34962
		},
		{
			"buffer":0,
			"byteLength":1536,
			"byteOffset":104836,
			"target":34962
		},
		{
			"buffer":0,
			"byteLength":2304,
			"byteOffset":106372,
			"target":34962
		},
		{
			"buffer":0,
			"byteLength":2304,
			"byteOffset":108676,
			"target":34962
		},
		{
			"buffer":0,
			"byteLength":1536,
			"byteOffset":110980,
			"target":34962
		}
	],
	"buffers":[
		{
			"byteLength":112516,
			"uri":"prototype1.bin"
		}
	]
}
